<?xml version="1.0" standalone="no"?>
<!DOCTYPE svg PUBLIC "-//W3C//DTD SVG 20010904//EN"
 "http://www.w3.org/TR/2001/REC-SVG-20010904/DTD/svg10.dtd">
<svg version="1.0" xmlns="http://www.w3.org/2000/svg"
 width="1600.000000pt" height="1600.000000pt" viewBox="0 0 1600.000000 1600.000000"
 preserveAspectRatio="xMidYMid meet">
<metadata>
Created by potrace 1.14, written by Peter Selinger 2001-2017
</metadata>
<g transform="translate(0.000000,1600.000000) scale(0.100000,-0.100000)"
fill="#000000" stroke="none">
<path d="M5330 15560 l0 -440 -1330 0 -1330 0 -2 -442 -3 -443 -442 -3 -443
-2 0 -445 0 -445 -438 0 -439 0 -6 -662 c-4 -364 -7 -765 -7 -892 l0 -231
-445 3 -445 2 0 -3110 0 -3110 448 -2 447 -3 3 -888 2 -888 440 3 440 3 0
-447 0 -448 450 0 450 0 0 -445 0 -445 435 0 435 0 0 -445 0 -445 890 0 890 0
0 -445 0 -445 2670 0 2670 0 0 445 0 445 890 0 890 0 0 445 0 445 440 0 440 0
0 445 0 445 445 0 445 0 0 445 0 445 445 0 445 0 0 890 0 890 445 0 445 0 0
2665 0 2665 -445 0 -445 0 0 1335 0 1335 -445 0 -445 0 0 445 0 445 -440 0
-440 0 -3 -437 c-1 -241 -3 -41 -5 445 l-2 882 -1330 0 -1330 0 0 440 0 440
-2670 0 -2670 0 0 -440z"/>
</g>
</svg>
